inDegrees=no
num_controls=7
num_derivatives=13
num_iterations=78
num_multipliers=7
num_parameters=0
num_slacks=7
num_states=26
objective=0.281020
objective_accelerations=0.000000
objective_balance=0.004695
objective_effort=0.079923
objective_height=0.196403
objective_ligament=0.000000
solver_duration=839.065027
status=Solve_Succeeded
success=true
DataType=double
version=3
OpenSimVersion=4.5
endheader
time	/jointset/ground_pelvis/pelvis_tilt/value	/jointset/ground_pelvis/pelvis_tx/value	/jointset/ground_pelvis/pelvis_ty/value	/jointset/hip_r/hip_flexion_r/value	/jointset/hip_r/hip_adduction_r/value	/jointset/hip_r/hip_rotation_r/value	/jointset/back/lumbar_extension/value	/jointset/patellofemoral_r/patellar_flexion_r/value	/jointset/knee_r/knee_flexion_r/value	/jointset/knee_r/knee_adduction_r/value	/jointset/knee_r/knee_rotation_r/value	/jointset/ankle_r/ankle_angle_r/value	/jointset/subtalar_r/subtalar_angle_r/value	/jointset/ground_pelvis/pelvis_tilt/speed	/jointset/ground_pelvis/pelvis_tx/speed	/jointset/ground_pelvis/pelvis_ty/speed	/jointset/hip_r/hip_flexion_r/speed	/jointset/hip_r/hip_adduction_r/speed	/jointset/hip_r/hip_rotation_r/speed	/jointset/back/lumbar_extension/speed	/jointset/patellofemoral_r/patellar_flexion_r/speed	/jointset/knee_r/knee_flexion_r/speed	/jointset/knee_r/knee_adduction_r/speed	/jointset/knee_r/knee_rotation_r/speed	/jointset/ankle_r/ankle_angle_r/speed	/jointset/subtalar_r/subtalar_angle_r/speed	/forceset/tau_hip_flexion_r	/forceset/tau_hip_adduction_r	/forceset/tau_hip_rotation_r	/forceset/tau_knee_flexion_r	/forceset/tau_ankle_angle_r	/forceset/tau_subtalar_angle_r	/forceset/tau_lumbar_extension	lambda_cid13_p0	lambda_cid14_p0	lambda_cid14_p1	lambda_cid14_p2	lambda_cid14_p3	lambda_cid14_p4	lambda_cid14_p5	/jointset/ground_pelvis/pelvis_tilt/accel	/jointset/ground_pelvis/pelvis_tx/accel	/jointset/ground_pelvis/pelvis_ty/accel	/jointset/hip_r/hip_flexion_r/accel	/jointset/hip_r/hip_adduction_r/accel	/jointset/hip_r/hip_rotation_r/accel	/jointset/back/lumbar_extension/accel	/jointset/patellofemoral_r/patellar_flexion_r/accel	/jointset/knee_r/knee_flexion_r/accel	/jointset/knee_r/knee_adduction_r/accel	/jointset/knee_r/knee_rotation_r/accel	/jointset/ankle_r/ankle_angle_r/accel	/jointset/subtalar_r/subtalar_angle_r/accel	gamma_cid13_p0	gamma_cid14_p0	gamma_cid14_p1	gamma_cid14_p2	gamma_cid14_p3	gamma_cid14_p4	gamma_cid14_p5
1	-0.2120336483088152	-0.01327052605231159	0.3713857247176279	2.181483229142564	-0.2426432459167797	0.04691255309917321	-0.4360793730993342	2.181563514010286	2.181563514009567	-0.1737368683604736	0.1724430097914701	0.4353044340590844	0.08987709146144049	-0.002472946131787874	0.0005200282253389504	1.265856321846407e-05	0.0006406415841277449	0.001529891874099387	-0.006500517499366052	0.0006187891375128096	0.000497949811165725	0.0004979498111658004	-0.007095395016460862	-0.006601323943016517	0.002222482102462144	0.003579415497492281	-0.1722936593466929	-0.03149572239745291	-0.0391414340453031	-0.5088160416537096	0.09277666346670596	-0.007875472188326639	0.210340687148569	-0.02708535875729885	-14.17502142889571	-8.887681887934102	5.286976501345527	7.650430031446079	-694.6025093860262	45.82545060663234	0.145298748635573	-0.07468560269829455	-0.0274539303771465	0.08103310581189134	0.09469062121613793	0.1731334847229261	0.05389335475705777	-0.005180885711705038	-0.005180885711704906	0.09177028439558417	-0.08335437579138431	-0.2229094410411606	0.07651855125789986	-7.359642522554586e-10	-1.568781924800713e-09	6.923732750728185e-09	-5.301830868921906e-09	-3.476698741608408e-10	1.094970112164809e-09	1.280998891697824e-08
1.01	-0.2120495112300963	-0.01326897653513914	0.3713847043155006	2.181492098276757	-0.2426254889004858	0.04685986600526208	-0.4360722273549184	2.181567918987619	2.181567918987256	-0.1737982049202811	0.1723793496354631	0.4353151424390028	0.08991259676070615	-0.0005394906292509971	-0.0002022047537587026	-0.0001941831428186746	0.0009722552306670328	0.001804589682567544	-0.003760462742071295	0.0006365051666202777	0.0003571447457901987	0.0003571447457902781	-0.004757953599373935	-0.005545031546291783	-0.0001141716439375778	0.003131928760974517	-0.1724049986678637	-0.03149572533850693	-0.03911549536694785	-0.5088006078658421	0.09279039159331395	-0.008052798474605273	0.2103744647093879	-0.02708312601676588	-14.18596529675547	-9.0092022183695	5.354999715535846	7.648336333137632	-694.6846247361211	45.52004550029262	0.2413896680176792	-0.06980476719585248	-0.0139148276256335	-0.01491527975640902	-0.0386820556137212	0.3659071052358771	-0.05036745987147955	-0.02241450220523978	-0.02241450220527647	0.3668266526555105	0.2879709883670534	-0.2440497668777924	-0.1638389436980382	-4.716173666850991e-09	-6.999071244378676e-09	1.236499319192184e-08	-1.187554616016822e-08	-3.108300425911235e-09	5.387569773067214e-09	1.329702090504453e-08
1.02	-0.2120412354529696	-0.01327441187209437	0.3713822923889314	2.181499455392637	-0.2426114931893664	0.04684287258571805	-0.4360701200875789	2.181570139077248	2.181570139077256	-0.1738237479494518	0.1723438223916082	0.4353014829963563	0.08993193586108852	0.00235479355153073	-0.0008769426001968911	-0.0002656463250933478	0.0003382379239583823	0.0007776308400002441	0.0006382173753499276	-0.0003889062785903926	6.097227022388243e-05	6.097227022396096e-05	6.331110932120083e-05	-0.0009747415110608155	-0.002651082407873551	0.0003461757207998867	-0.1725163379890335	-0.03149572827956166	-0.03908955668858731	-0.5087851740779717	0.09280411971992338	-0.008230124760884949	0.2104082422702045	-0.02707949896267115	-14.19713899786115	-9.127197324411123	5.418388283270634	7.656405699753056	-694.7640524228415	45.23273056331026	0.3374644842845431	-0.06518657616640526	-0.0003782256246451774	-0.1120930848377195	-0.1656407089909523	0.5048585567482149	-0.1547321401065482	-0.03625436774988616	-0.036254367749887	0.5885349427172273	0.6194451519098608	-0.2629608445484113	-0.3911347094734719	-1.30573170703372e-09	-1.997120946414601e-09	-2.66709383347461e-09	1.351320237470484e-09	-9.413969671935884e-11	8.810307059283973e-10	-7.654148643427058e-09
1.03	-0.2120023907195894	-0.013286501338589	0.371379409271765	2.181498492949756	-0.2426087811395518	0.04687022417684601	-0.4360799770623011	2.181569355993269	2.181569355993051	-0.1738000039787461	0.1723562277837388	0.4352626938278171	0.0899217627160044	0.005257552680999065	-0.001547333254521846	-0.0003316413028652929	-0.0004065356118097554	9.05888147414326e-05	0.004357031008610116	-0.001406799625449952	-0.0001727759403110986	-0.0001727759403110239	0.004007952282204543	0.002542203217170973	-0.005018600298113628	-0.001780298972134834	-0.1724367021523347	-0.03137863504295222	-0.03915129379891875	-0.5088099737739059	0.09292164258794926	-0.008040349031688144	0.2104211663446629	-0.02706342615182442	-14.1424664216496	-8.993248542601989	5.349108885477269	7.55789212063619	-694.7246577003884	45.56771098711977	0.2431921093948325	-0.06892207904085081	-0.01281053395548145	-0.03704041235246377	0.02863963275226699	0.2341323639202281	-0.04896457584068362	-0.01021353602915879	-0.01021353602919638	0.1957981506412989	0.08077803645677319	-0.2104236751055558	-0.03332911860000528	2.180125062726582e-09	3.11128077621833e-09	-1.790809256771393e-08	1.47802333870367e-08	2.978947474114819e-09	-3.715295491088441e-09	-2.882407535043487e-08
1.04	-0.2119392162984995	-0.01330548606542258	0.3713752461248008	2.181493808586624	-0.2426031643935845	0.04692051182376122	-0.4360947422992607	2.181567579729519	2.181567579729091	-0.1737571397070898	0.1723763944037796	0.4352028741975934	0.08990833977011181	0.007220731095188939	-0.00225599466798531	-0.0005216522846123773	-0.0004061461238158738	0.001358570071306665	0.005225428534084001	-0.001370558726865899	-0.0001376636838004809	-0.000137663683800405	0.00388737129778197	0.0005775040724803357	-0.006857174742103564	-0.0003037844409308251	-0.172357066315635	-0.03126154180634341	-0.03921303090924549	-0.5088347734698373	0.09303916545597658	-0.007850573302492184	0.2104340904191191	-0.02704679683885533	-14.08822506418181	-8.857902460936566	5.277924396218575	7.470664543816423	-694.6833953933158	45.91287627615381	0.1495483412288731	-0.07284072799411546	-0.0251814264196673	0.03693951991466008	0.2253639473738595	-0.06522466480905335	0.056094708982222	0.0175177256592159	0.01751772565921613	-0.2245094887439595	-0.4768836226746302	-0.1571721552984003	0.3294631353542731	1.312686663321701e-09	2.303585031795945e-09	-7.452533334580316e-09	6.158724067206505e-09	7.579266593226045e-10	-1.755612495964504e-09	-1.20544898007633e-08
1.05	-0.211859577083037	-0.01333168765598031	0.3713687564691139	2.18149191967408	-0.2425793058514637	0.04697511658590212	-0.4361055583036298	2.181566679658834	2.181566679658319	-0.1737236666278319	0.1723631823909519	0.4351259695856692	0.08991976768877132	0.008701172331865084	-0.002984548753892313	-0.0007779655528907056	6.383055386068991e-05	0.003310816940572706	0.006228606702671583	-0.000782311240966145	-8.087074523738212e-05	-8.087074523729693e-05	0.003366685028909115	-0.002741959388288286	-0.00857345443206076	0.002383696323599537	-0.1723550200680059	-0.0312425209371477	-0.03911413848092998	-0.5088482399472321	0.0930476507970195	-0.007955214113304437	0.2104420430748778	-0.02706361199718134	-14.09627087409724	-8.924450115842303	5.311028502294216	7.552054900881072	-694.692836871479	45.77624807398954	0.1464012642609384	-0.07289689528936183	-0.02610917837965094	0.05734700996633002	0.1648058548075897	0.2630514007315536	0.06173940445170137	-0.006018017632062413	-0.006018017632100399	0.118068165254781	-0.1877859948173596	-0.1863117215195642	0.2075399897478459	3.092077898804334e-10	1.311011241528117e-09	3.806043335033557e-09	-3.151860954792207e-09	-1.628535030020404e-09	4.089457864137957e-10	5.900705506929287e-09
1.06	-0.2117653116053408	-0.01336518161667781	0.3713596531004749	2.181495794581954	-0.242538994681033	0.0470557455983303	-0.4361101819059263	2.181565191898418	2.181565191897826	-0.1736786171390102	0.1723311140861011	0.4350304110076972	0.08995190030362539	0.01014598354354626	-0.003714468695939471	-0.001044394874975757	0.0007466179624300301	0.004649095734022767	0.01043027859281624	-0.0001320783127083126	-0.0002552016301513097	-0.0002552016301512147	0.006202653208583083	-0.00319375433063204	-0.01058796794902543	0.003837154797947072	-0.1723529738203757	-0.03122350006795243	-0.03901524605261129	-0.5088617064246239	0.09305613613806382	-0.008059854924117172	0.2104499957306347	-0.02708109179147979	-14.10509957386622	-8.991875830560513	5.34511896408235	7.646478903177027	-694.7011825354371	45.64640726604453	0.1424223362299241	-0.07311389922216098	-0.02720463718100656	0.07950166609318444	0.1025703322106702	0.5744740795023497	0.06849179745390456	-0.02870703903620783	-0.02870703903620742	0.446821400965396	0.09665008101033065	-0.2168189206999309	0.08265867731770619	4.457625924582433e-10	1.12483886728039e-09	4.209264155601753e-09	-3.16654583635901e-09	-1.112904296287988e-09	1.981809778687919e-10	8.020151692129336e-09
1.07	-0.2116554004115317	-0.01340592682467463	0.3713480554801941	2.181505571658463	-0.2424881287724087	0.04718031470551753	-0.4361095713943084	2.181561670028306	2.181561670028064	-0.1736012952867635	0.1723013914884948	0.4349139113718325	0.08999339054899187	0.01197000785058286	-0.004429345643222591	-0.001254411209694584	0.001042163312237946	0.005448090665617862	0.01363246925888894	0.0001041127954633845	-0.0004027917866624145	-0.0004027917866622969	0.008552915297745411	-0.003013720894534663	-0.01269084240911497	0.004358210422257702	-0.1723713045795505	-0.03123018269378305	-0.03912513186270886	-0.5089206719502827	0.09323273763899223	-0.008147781731180533	0.2104304257588191	-0.02705839615267756	-14.05843167093823	-9.03561564042452	5.367768878327608	7.600348097812022	-694.7876922234989	45.5814119560644	0.222455606943584	-0.0698905826186228	-0.01479246842635683	-0.02041389966206838	0.05716401748665691	0.06543057650919706	-0.02132740842579767	-0.0008280445655553135	-0.0008280445655928842	0.0228083100967221	-0.0607634876537651	-0.2038540575604535	0.02142671598045802	6.429574841860118e-10	9.815601853741635e-10	4.035072431007873e-09	-2.686767944498524e-09	-4.429069443068593e-10	-1.389308035976799e-10	9.297270796345639e-09
1.08	-0.2115232363488593	-0.01345366400017234	0.3713349792292046	2.181513305214642	-0.2424315529257014	0.04731137352262906	-0.4361111010067919	2.181558063648507	2.181558063648621	-0.1735217348741727	0.1722655805327294	0.4347770165215748	0.09003701089280018	0.01459655731778783	-0.005112862196119002	-0.001340121016675007	0.0003379138985847005	0.005791083351321468	0.01172822057894193	-0.0005601031333055043	-0.0002721035674536376	-0.000272103567453501	0.006650365275108319	-0.004411425960965377	-0.0146670108250844	0.004263174486276993	-0.1723896353387245	-0.03123686531961391	-0.03923501767280528	-0.5089796374759386	0.09340933913992212	-0.008235708538243911	0.2104108557870017	-0.02703598249358682	-14.01240382576309	-9.079530756815627	5.390518944693421	7.567435805978122	-694.8738191472316	45.51884800128301	0.3029273682636615	-0.06684182034484203	-0.002343331633318451	-0.120457286599088	0.01136988303238252	-0.4468137897016035	-0.1115896099341321	0.02694863610774081	0.02694863610774064	-0.4037410213944962	-0.2188976194953035	-0.1914777118759661	-0.04055963474056493	1.827647573185293e-10	-2.842652804642782e-11	4.665685070655509e-10	-1.481065856006748e-10	4.985898412921636e-10	-1.245884603943034e-10	1.912915450020667e-09
